HIERARCHY
ROOT root
{
	OFFSET 0.000000 0.000000 0.000000
	CHANNELS 6 Xposition Yposition Zposition Zrotation Yrotation Xrotation
	JOINT lhip
	{
		OFFSET 0.058581 -0.082280 -0.017664
		CHANNELS 3 Zrotation Yrotation Xrotation
		JOINT lknee
		{
			OFFSET 0.043451 -0.386469 0.008037
			CHANNELS 3 Zrotation Yrotation Xrotation
			JOINT lankle
			{
				OFFSET -0.014790 -0.426874 -0.037428
				CHANNELS 3 Zrotation Yrotation Xrotation
				JOINT ltoe
				{
					OFFSET 0.041054 -0.060286 0.122042
					CHANNELS 3 Zrotation Yrotation Xrotation
					End Site
					{
						OFFSET 0.000000 0.000000 0.000000
					}
				}
			}
		}
	}
	JOINT rhip
	{
		OFFSET -0.060310 -0.090513 -0.013543
		CHANNELS 3 Zrotation Yrotation Xrotation
		JOINT rknee
		{
			OFFSET -0.043257 -0.383688 -0.004843
			CHANNELS 3 Zrotation Yrotation Xrotation
			JOINT rankle
			{
				OFFSET 0.019056 -0.420046 -0.034562
				CHANNELS 3 Zrotation Yrotation Xrotation
				JOINT rtoe
				{
					OFFSET -0.034840 -0.062106 0.130323
					CHANNELS 3 Zrotation Yrotation Xrotation
					End Site
					{
						OFFSET 0.000000 0.000000 0.000000
					}
				}
			}
		}
	}
	JOINT lowerback
	{
		OFFSET 0.004439 0.124404 -0.038385
		CHANNELS 3 Zrotation Yrotation Xrotation
		JOINT upperback
		{
			OFFSET 0.004488 0.137956 0.026820
			CHANNELS 3 Zrotation Yrotation Xrotation
			JOINT chest
			{
				OFFSET -0.002265 0.056032 0.002855
				CHANNELS 3 Zrotation Yrotation Xrotation
				JOINT lowerneck
				{
					OFFSET -0.013390 0.211636 -0.033468
					CHANNELS 3 Zrotation Yrotation Xrotation
					JOINT upperneck
					{
						OFFSET 0.010113 0.088937 0.050410
						CHANNELS 3 Zrotation Yrotation Xrotation
						End Site
						{
							OFFSET 0.000000 0.000000 0.000000
						}
					}
				}
				JOINT lclavicle
				{
					OFFSET 0.071702 0.114000 -0.018898
					CHANNELS 3 Zrotation Yrotation Xrotation
					JOINT lshoulder
					{
						OFFSET 0.122921 0.045205 -0.019046
						CHANNELS 3 Zrotation Yrotation Xrotation
						JOINT lelbow
						{
							OFFSET 0.255332 -0.015649 -0.022946
							CHANNELS 3 Zrotation Yrotation Xrotation
							JOINT lwrist
							{
								OFFSET 0.265709 0.012698 -0.007375
								CHANNELS 3 Zrotation Yrotation Xrotation
								End Site
								{
									OFFSET 0.000000 0.000000 0.000000
								}
							}
						}
					}
				}
				JOINT rclavicle
				{
					OFFSET -0.082954 0.112472 -0.023707
					CHANNELS 3 Zrotation Yrotation Xrotation
					JOINT rshoulder
					{
						OFFSET -0.113228 0.046853 -0.008472
						CHANNELS 3 Zrotation Yrotation Xrotation
						JOINT relbow
						{
							OFFSET -0.260127 -0.014369 -0.031269
							CHANNELS 3 Zrotation Yrotation Xrotation
							JOINT rwrist
							{
								OFFSET -0.269108 0.006794 -0.006027
								CHANNELS 3 Zrotation Yrotation Xrotation
								End Site
								{
									OFFSET 0.000000 0.000000 0.000000
								}
							}
						}
					}
				}
			}
		}
	}
}
MOTION
Frames: 8
Frame Time: 0.033333
0.505028 0.202463 1.003219 89.064006 0.754624 87.958242 -1.538322 -2.803927 1.265820 -0.227558 -8.102615 5.894737 3.910939 7.399226 -13.771963 0.000000 -0.000000 0.000000 -0.547870 -0.286906 5.009950 0.931793 0.507392 -2.082641 0.916311 -6.898393 -9.598960 0.000000 -0.000000 0.000000 -0.971319 0.825431 -0.279766 2.351291 -6.161859 4.028369 1.634873 -2.732083 -4.741011 -7.519897 -15.538363 12.595623 5.216585 -12.178602 -12.664878 -17.012714 -5.919278 12.103338 -62.058710 -8.565316 8.925829 10.512847 -15.732796 -1.155642 9.285524 -12.360088 -16.558989 14.264885 6.639000 4.922046 56.702050 2.549645 6.882808 -10.773650 12.337769 0.072565 10.073443 11.074553 -15.866788 
0.504829 0.202719 1.003305 88.816219 0.632521 87.850455 -1.822055 -2.767712 1.377244 -0.098895 -7.843373 5.868297 3.774425 7.694038 -13.643825 0.000000 -0.000000 0.000000 -0.719614 -0.163996 5.025215 0.914894 0.424622 -1.944540 1.467528 -6.712945 -9.724478 0.000000 -0.000000 0.000000 -0.895673 0.913316 0.033250 2.229896 -6.030074 3.036424 1.514491 -2.686208 -4.262366 -7.240925 -12.810935 13.227686 4.251241 -10.540336 -11.459436 -17.209427 -6.294415 12.203339 -61.284519 -8.624217 9.044823 10.349728 -16.180598 0.864963 8.678195 -12.909727 -16.641781 14.861547 6.654020 5.302496 56.111704 3.375923 7.067801 -11.608695 13.584038 0.039710 6.461143 11.099059 -17.045531 
0.504600 0.203068 1.003145 88.552945 0.597664 87.798885 -1.994693 -2.694634 1.412926 0.072151 -7.448505 5.827331 3.712885 7.648506 -13.423225 0.000000 -0.000000 0.000000 -0.780020 -0.106086 4.957647 0.863622 0.236321 -1.822436 1.637059 -6.328679 -9.738480 0.000000 -0.000000 0.000000 -0.703817 0.979299 0.140758 2.064827 -5.879423 2.722303 1.328074 -2.553165 -4.563216 -6.770090 -10.293815 13.914709 3.461789 -9.028944 -9.335426 -16.949189 -6.611800 12.501169 -61.018754 -8.697367 8.802070 10.350160 -17.156019 3.395552 5.659782 -14.330400 -15.701524 14.745324 6.792243 6.015519 56.499561 4.372641 6.781030 -12.165259 14.594887 -0.192462 4.383091 11.427467 -18.636569 
0.504031 0.203590 1.003148 88.322172 0.632032 87.744039 -2.039008 -2.587844 1.401134 0.196811 -6.929598 5.857123 3.644367 7.345059 -13.358810 0.000000 -0.000000 0.000000 -0.769485 -0.054290 4.848484 0.809236 -0.159807 -1.641552 1.680662 -5.692461 -9.832073 0.000000 -0.000000 0.000000 -0.606409 1.046533 0.056741 1.993803 -5.706383 2.774904 1.148744 -2.382608 -5.219334 -5.760333 -7.108820 14.955656 2.565816 -6.885743 -5.970731 -16.800875 -6.877055 12.948121 -60.883118 -8.708886 8.441559 10.804329 -19.240673 6.125984 -0.070309 -16.385144 -14.147800 14.790798 6.937021 6.992788 56.936387 5.512828 6.351624 -12.958267 16.374394 0.061837 6.290176 12.283650 -20.457634 
0.503484 0.204045 1.003083 88.252325 0.688152 87.709786 -1.987395 -2.594195 1.365847 0.207041 -6.690769 5.929638 3.647095 7.167124 -13.422803 0.000000 -0.000000 0.000000 -0.722780 -0.013713 4.771102 0.783737 -0.340233 -1.508317 1.666260 -5.440488 -9.904680 0.000000 -0.000000 0.000000 -0.596883 1.072261 -0.009888 2.006110 -5.614009 2.870692 1.088627 -2.291106 -5.599142 -5.084537 -5.412110 15.533919 2.206134 -5.523547 -3.933010 -16.749926 -6.983258 13.205141 -61.036225 -8.788527 8.349529 11.064338 -20.588761 6.999093 -2.464397 -17.355878 -13.885736 14.877624 7.036385 7.549531 57.172407 6.128398 6.249499 -13.257895 17.463645 0.188153 7.732675 12.877283 -21.275647 
0.502600 0.204745 1.002823 88.274438 0.784333 87.677143 -1.877421 -2.721339 1.315710 0.163073 -6.596460 5.995179 3.736333 7.070351 -13.539376 0.000000 -0.000000 0.000000 -0.662448 0.005448 4.672348 0.793408 -0.502867 -1.360605 1.633263 -5.277505 -9.969087 0.000000 -0.000000 0.000000 -0.656376 1.089649 -0.173997 2.093234 -5.536861 3.062818 1.131829 -2.222005 -5.792061 -4.424077 -3.742192 16.225187 1.893626 -3.654955 -2.334378 -16.680833 -6.995780 13.284769 -61.622268 -9.069396 8.629246 11.256646 -22.221806 6.769123 -2.530490 -17.817924 -15.140079 14.864828 7.109121 7.825567 57.551030 6.807553 6.609083 -13.454924 18.806264 -0.125580 8.881229 13.595029 -22.679829 
0.501614 0.205377 1.002522 88.444919 0.880820 87.612571 -1.736979 -2.876612 1.329826 0.072860 -6.669121 5.983028 3.783106 6.941972 -13.665499 0.000000 -0.000000 0.000000 -0.626769 -0.010388 4.638157 0.836021 -0.696685 -1.243743 1.597360 -5.177790 -9.988866 0.000000 -0.000000 0.000000 -0.724293 1.099347 -0.285910 2.185297 -5.527151 3.335371 1.267429 -2.227281 -5.664836 -4.183069 -2.648786 16.701465 1.677194 -2.100871 -2.425847 -16.667690 -6.885376 12.941103 -62.439578 -9.409066 9.271518 11.398163 -23.528056 5.464722 -0.315714 -17.458570 -17.260136 14.722350 7.050777 7.460530 58.076704 7.412616 7.426159 -13.368370 19.938318 -1.099615 8.623750 13.603097 -24.333233 
0.500362 0.205844 1.002239 88.732162 0.970947 87.592851 -1.553108 -3.024829 1.273203 -0.073303 -6.815353 5.973864 3.786268 6.701330 -13.791310 0.000000 -0.000000 0.000000 -0.612150 -0.047441 4.561545 0.897102 -0.941071 -1.148059 1.568364 -5.131637 -9.975587 0.000000 -0.000000 0.000000 -0.758791 1.091422 -0.228735 2.257994 -5.553531 3.458936 1.405363 -2.272277 -5.388060 -4.196682 -1.929767 16.680874 1.501917 -1.038562 -3.225734 -16.658572 -6.799141 12.579488 -63.361409 -9.729622 9.931064 11.600335 -24.599749 3.978565 2.447174 -16.814872 -19.591606 14.662589 6.958026 7.017516 58.652225 7.848586 8.258446 -13.282108 21.164939 -2.228841 7.804731 13.554939 -26.292337 
